:version 1.10
:name ASF
:units
  mass 1
  length 1
  angle deg
:documentation
  ASF file generated by Kaydara
:root
  axis xyz
  order  tx ty tz rx ry rz
  position 0 0 0
  orientation 0 0 0
:bonedata
  begin
    id 1
    name RightUpLegDummy
    direction -0.65628 -0.754516 0.00165102
    length 4.76918
    axis 0 0 0 xyz
  end
  begin
    id 2
    name RightUpLeg
    direction -0.145584 -0.923362 0.355256
    length 17.9961
    axis -24.7611 -13.1006 1.78531 xyz
    dof rx ry rz
  end
  begin
    id 3
    name RightLeg
    direction 0.263379 0.172355 -0.949171
    length 13.3386
    axis 89.6202 -21.1929 12.3855 xyz
    dof rx ry rz
  end
  begin
    id 4
    name RightFoot
    direction 0.224283 -0.968777 -0.105675
    length 5.86697
    axis 56.995 -39.6905 17.3365 xyz
    dof rx ry rz
  end
  begin
    id 5
    name RightToes
    direction -0.0806345 -0.9037 0.420506
    length 4.75197
    axis 146.825 -39.7828 17.6019 xyz
    dof rx ry rz
  end
  begin
    id 6
    name SpineDummy
    direction -3.39852e-014 1 9.33296e-014
    length 8.13779
    axis 0 0 0 xyz
  end
  begin
    id 7
    name Spine
    direction -0.156609 0.733703 0.661176
    length 7.14978
    axis 41.2365 5.68757 17.0844 xyz
    dof rx ry rz
  end
  begin
    id 8
    name Spine1
    direction 0 0 0
    length 0
    axis 42.8809 47.8308 -3.36039 xyz
    dof rx ry rz
  end
  begin
    id 9
    name HEadDummy
    direction 0.546431 0.701947 0.456819
    length 3.55512
    axis 42.8809 47.8308 -3.36039 xyz
  end
  begin
    id 10
    name HEad
    direction 0.23444 0.828559 0.508457
    length 7.35827
    axis 51.1864 49.2662 27.4903 xyz
    dof rx ry rz
  end
  begin
    id 11
    name LeftShoulder1Dummy
    direction 0.431183 0.475873 -0.766568
    length 2.49352
    axis 42.8809 47.8308 -3.36039 xyz
  end
  begin
    id 12
    name LeftShoulder1
    direction 0.268187 -0.383402 -0.883786
    length 4.48604
    axis -119.517 0.106469 35.1736 xyz
    dof rx ry rz
  end
  begin
    id 13
    name LeftArm
    direction 0.380567 -0.703221 -0.600541
    length 10.1142
    axis -5.41825 36.2925 7.8293 xyz
    dof rx ry rz
  end
  begin
    id 14
    name LeftForeArm
    direction 0.541071 -0.732356 -0.413396
    length 9.39839
    axis 4.65387 33.7604 7.81644 xyz
    dof rx ry rz
  end
  begin
    id 15
    name LeftHand
    direction 0.847511 -0.389379 -0.360707
    length 3.66142
    axis 7.65593 21.1436 -24.6758 xyz
    dof rx ry rz
  end
  begin
    id 16
    name RightShoulderDummy
    direction -0.692546 0.541855 0.476208
    length 2.49352
    axis 42.8809 47.8308 -3.36039 xyz
  end
  begin
    id 17
    name RightShoulder
    direction -0.870808 -0.316653 0.376065
    length 4.48602
    axis 141.571 51.133 -100.254 xyz
    dof rx ry rz
  end
  begin
    id 18
    name RightArm
    direction 0.366897 -0.87275 0.322015
    length 10.1142
    axis 92.3258 71.2036 138.917 xyz
    dof rx ry rz
  end
  begin
    id 19
    name RightForeArm
    direction 0.702487 -0.694568 0.155197
    length 9.39835
    axis 153.863 41.5092 -176.604 xyz
    dof rx ry rz
  end
  begin
    id 20
    name RightHand
    direction 0.79502 -0.601276 0.0800636
    length 3.66142
    axis 154.247 4.59222 142.9 xyz
    dof rx ry rz
  end
  begin
    id 21
    name LeftUpLegDummy
    direction 0.65628 -0.754516 0.00165102
    length 4.76919
    axis 0 0 0 xyz
  end
  begin
    id 22
    name LeftUpLeg
    direction -0.1277 -0.689368 0.713067
    length 17.9961
    axis -48.3385 -17.8675 0.791927 xyz
    dof rx ry rz
  end
  begin
    id 23
    name LeftLeg
    direction 0.109849 -0.991246 -0.0732378
    length 13.3386
    axis -2.05791 -7.30784 1.72042 xyz
    dof rx ry rz
  end
  begin
    id 24
    name LeftFoot
    direction 0.0448355 -0.272614 0.961078
    length 5.86697
    axis -18.7733 -7.89606 10.2113 xyz
    dof rx ry rz
  end
  begin
    id 25
    name LeftToes
    direction -0.18506 0.293668 0.937823
    length 4.75197
    axis 71.2267 -7.89606 10.2113 xyz
    dof rx ry rz
  end
:hierarchy
  begin
    root RightUpLegDummy SpineDummy LeftUpLegDummy
    RightUpLegDummy RightUpLeg
    RightUpLeg RightLeg
    RightLeg RightFoot
    RightFoot RightToes
    SpineDummy Spine
    Spine Spine1
    Spine1 HEadDummy LeftShoulder1Dummy RightShoulderDummy
    HEadDummy HEad
    LeftShoulder1Dummy LeftShoulder1
    LeftShoulder1 LeftArm
    LeftArm LeftForeArm
    LeftForeArm LeftHand
    RightShoulderDummy RightShoulder
    RightShoulder RightArm
    RightArm RightForeArm
    RightForeArm RightHand
    LeftUpLegDummy LeftUpLeg
    LeftUpLeg LeftLeg
    LeftLeg LeftFoot
    LeftFoot LeftToes
  end

:SAMPLES-PER-SECOND 30
:FULLY-SPECIFIED
:DEGREES
466
root  0.651398 36.5692 67.3299 178.068 -11.5044 169.795
RightUpLeg  4.64095 10.7041 -0.426129
RightLeg  -39.2604 -32.3554 8.6407
RightFoot  14.6979 6.41564 -17.6162
RightToes  -1.27222e-014 -6.36111e-015 6.36111e-015
Spine  -19.0155 -14.0377 -13.2291
Spine1  17.6827 -8.06084 27.0181
HEad  8.80054 -0.620188 -16.1818
LeftShoulder1  6.36111e-015 -1.33558e-015 6.49777e-015
LeftArm  29.4086 14.5406 -27.1707
LeftForeArm  -6.55784 -36.639 3.29436
LeftHand  -0.744785 0.305793 -10.1559
RightShoulder  -4.77083e-015 -6.36111e-015 -3.18055e-015
RightArm  32.0251 -25.9498 -6.66521
RightForeArm  -34.2163 16.6866 -33.1315
RightHand  -0.556127 4.22625 -1.90954
LeftUpLeg  10.8688 22.9074 0.0218273
LeftLeg  -0.526623 -11.613 -1.46613
LeftFoot  8.33566 1.94643 -5.20314
LeftToes  9.54166e-015 4.2066e-011 -8.07781e-011
467
root  1.03344 36.9199 66.9596 -179.702 -12.5876 173.139
RightUpLeg  9.95584 10.9465 1.12243
RightLeg  -52.7149 -29.5716 12.8331
RightFoot  14.2125 6.40348 -17.5266
RightToes  -1.27222e-014 -6.36111e-015 6.36111e-015
Spine  -19.7532 -11.198 -10.9954
Spine1  15.378 -6.59103 26.7716
HEad  9.86491 -5.43341 -13.5473
LeftShoulder1  6.36111e-015 -1.33558e-015 6.49777e-015
LeftArm  31.6421 16.719 -25.8626
LeftForeArm  -10.756 -38.6405 5.49975
LeftHand  -0.663707 0.413428 -9.56426
RightShoulder  -4.77083e-015 -6.36111e-015 -3.18055e-015
RightArm  29.303 -19.7011 -3.3368
RightForeArm  -31.8741 18.3989 -33.4436
RightHand  -0.47508 3.77979 -1.85924
LeftUpLeg  9.82071 18.074 2.00786
LeftLeg  -1.078 -11.854 -1.47352
LeftFoot  7.40638 2.54362 -6.94764
LeftToes  9.54166e-015 4.2066e-011 -8.07781e-011
468
root  1.34699 37.0278 66.5554 -178.317 -13.9779 176.709
RightUpLeg  17.5052 11.7836 3.25673
RightLeg  -64.8748 -22.1634 11.0125
RightFoot  10.7529 4.26788 -13.0303
RightToes  -1.27222e-014 -6.36111e-015 6.36111e-015
Spine  -20.4288 -7.94006 -8.16186
Spine1  13.5129 -5.07421 26.5481
HEad  10.2021 -11.3426 -11.6875
LeftShoulder1  6.36111e-015 -1.33558e-015 6.49777e-015
LeftArm  33.6916 19.0679 -22.8557
LeftForeArm  -17.134 -42.9033 10.011
LeftHand  -0.935049 -0.485758 -9.60998
RightShoulder  -4.77083e-015 -6.36111e-015 -3.18055e-015
RightArm  28.1109 -13.4987 -2.77354
RightForeArm  -31.8614 16.9382 -31.9524
RightHand  -0.56761 4.0628 -1.44929
LeftUpLeg  8.6197 13.2508 4.18285
LeftLeg  0.4913 -12.1472 -1.67338
LeftFoot  4.82127 2.7737 -8.10556
LeftToes  9.54166e-015 4.2066e-011 -8.07781e-011
469
root  1.58652 36.7717 66.1841 -177.762 -15.2175 179.482
RightUpLeg  26.0251 13.3906 6.22667
RightLeg  -76.0151 -15.491 4.77297
RightFoot  4.16054 2.47231 -7.44672
RightToes  -1.27222e-014 -6.36111e-015 6.36111e-015
Spine  -20.5444 -5.05006 -5.35902
Spine1  12.5936 -3.71478 25.4536
HEad  9.2799 -17.8782 -10.1212
LeftShoulder1  6.36111e-015 -1.33558e-015 6.49777e-015
LeftArm  35.3975 20.9858 -18.5742
LeftForeArm  -27.7586 -46.6922 17.3284
LeftHand  -1.14826 -1.0973 -10.0563
RightShoulder  -4.77083e-015 -6.36111e-015 -3.18055e-015
RightArm  27.1621 -7.86089 -3.95481
RightForeArm  -32.2009 15.5491 -30.7669
RightHand  -0.593949 4.3555 -1.76685
LeftUpLeg  6.84112 9.80886 5.95498
LeftLeg  4.38013 -11.9066 -2.01493
LeftFoot  1.68641 2.41829 -7.71772
LeftToes  9.54166e-015 4.2066e-011 -8.07781e-011
470
root  1.71787 36.3715 65.7191 -177.823 -16.5534 -178.768
RightUpLeg  33.9866 14.3657 10.0969
RightLeg  -87.0379 -12.8846 2.18356
RightFoot  -1.38353 3.10578 -6.57423
RightToes  -1.27222e-014 -6.36111e-015 6.36111e-015
Spine  -21.02 -2.55137 -2.67444
Spine1  13.2235 -2.40872 24.704
HEad  5.62553 -25.5894 -8.42123
LeftShoulder1  6.36111e-015 -1.33558e-015 6.49777e-015
LeftArm  34.771 21.6293 -15.2901
LeftForeArm  -41.4711 -48.3098 25.9839
LeftHand  -0.802713 -0.0699587 -9.50178
RightShoulder  -4.77083e-015 -6.36111e-015 -3.18055e-015
RightArm  26.3247 -3.84095 -7.32254
RightForeArm  -33.3319 16.3647 -32.2569
RightHand  -0.191414 3.2966 -3.75958
LeftUpLeg  5.49823 7.56977 6.90239
LeftLeg  8.86134 -11.6822 -2.40662
LeftFoot  -1.43091 1.99093 -6.97537
LeftToes  9.54166e-015 4.2066e-011 -8.07781e-011
471
root  1.76485 36.1028 65.1001 -177.682 -18.2568 -178.383
RightUpLeg  39.1704 13.2723 12.2732
RightLeg  -95.9999 -12.2086 4.91495
RightFoot  -3.45055 4.63302 -9.49542
RightToes  -1.27222e-014 -6.36111e-015 6.36111e-015
Spine  -22.071 -1.11952 -1.5028
Spine1  16.2255 -1.03444 24.4569
HEad  -0.45308 -34.4228 -5.80894
LeftShoulder1  6.36111e-015 -1.33558e-015 6.49777e-015
LeftArm  29.87 21.2159 -14.7437
LeftForeArm  -55.8642 -48.7403 35.5225
LeftHand  -0.185345 1.50601 -7.9459
RightShoulder  -4.77083e-015 -6.36111e-015 -3.18055e-015
RightArm  25.914 -4.20791 -13.6953
RightForeArm  -38.8371 16.9239 -36.3114
RightHand  0.540934 1.2688 -6.35274
LeftUpLeg  5.10278 6.08051 6.52288
LeftLeg  11.7264 -12.0304 -2.82126
LeftFoot  -4.39538 1.86831 -7.21254
LeftToes  9.54166e-015 4.2066e-011 -8.07781e-011
472
root  1.72487 36.1237 64.4251 -176.698 -20.1255 -179.109
RightUpLeg  39.8131 9.81006 9.59532
RightLeg  -99.238 -12.1181 4.82506
RightFoot  -1.86016 4.99187 -10.9765
RightToes  -1.27222e-014 -6.36111e-015 6.36111e-015
Spine  -22.9774 -1.06345 -2.16868
Spine1  20.0132 0.067983 24.3698
HEad  -5.77736 -41.7212 -3.01057
LeftShoulder1  6.36111e-015 -1.33558e-015 6.49777e-015
LeftArm  22.3978 20.2372 -16.9403
LeftForeArm  -70.8624 -48.0953 46.9405
LeftHand  0.0682416 2.03003 -7.05103
RightShoulder  -4.77083e-015 -6.36111e-015 -3.18055e-015
RightArm  27.1434 -10.0646 -21.4734
RightForeArm  -50.1863 14.5559 -40.346
RightHand  0.857437 0.626201 -7.68273
LeftUpLeg  5.30962 5.25208 5.10729
LeftLeg  11.7532 -12.276 -2.90563
LeftFoot  -6.22658 1.94212 -8.00953
LeftToes  9.54166e-015 4.2066e-011 -8.07781e-011
473
root  1.58262 36.4228 63.7494 -175.203 -21.8696 179.747
RightUpLeg  37.1468 7.70456 6.13993
RightLeg  -95.2447 -11.7716 2.66369
RightFoot  2.74935 3.53701 -9.20748
RightToes  -1.27222e-014 -6.36111e-015 6.36111e-015
Spine  -23.0929 -2.60994 -4.26407
Spine1  21.9557 -0.0608552 25.2239
HEad  -6.59081 -44.4018 -3.68793
LeftShoulder1  6.36111e-015 -1.33558e-015 6.49777e-015
LeftArm  16.4561 18.5085 -20.6914
LeftForeArm  -84.6741 -45.5163 57.8368
LeftHand  -0.05057 1.74057 -7.31583
RightShoulder  -4.77083e-015 -6.36111e-015 -3.18055e-015
RightArm  30.933 -18.2101 -27.4112
RightForeArm  -63.6478 11.6241 -43.2625
RightHand  0.4904 1.62481 -6.62335
LeftUpLeg  6.01636 4.94855 3.36985
LeftLeg  9.40961 -11.9769 -2.55034
LeftFoot  -6.15361 2.10721 -8.67905
LeftToes  9.54166e-015 4.2066e-011 -8.07781e-011
474
root  1.37533 36.842 63.0589 -174.11 -23.2809 178.568
RightUpLeg  31.6621 4.98532 2.57049
RightLeg  -84.796 -12.8178 0.654216
RightFoot  10.0336 2.23267 -9.0536
RightToes  -1.27222e-014 -6.36111e-015 6.36111e-015
Spine  -22.3843 -5.92789 -7.83071
Spine1  21.5802 -1.94755 28.0301
HEad  -3.93986 -42.262 -8.29942
LeftShoulder1  6.36111e-015 -1.33558e-015 6.49777e-015
LeftArm  14.2302 15.2536 -24.3925
LeftForeArm  -94.1886 -42.1843 65.0639
LeftHand  -0.14839 1.57402 -7.78213
RightShoulder  -4.77083e-015 -6.36111e-015 -3.18055e-015
RightArm  36.0847 -24.4347 -28.9755
RightForeArm  -73.1385 10.9669 -48.9258
RightHand  0.0377469 2.35923 -4.06917
LeftUpLeg  7.59437 4.87463 1.66205
LeftLeg  6.28812 -12.0476 -2.23891
LeftFoot  -5.19685 2.39628 -9.5484
LeftToes  9.54166e-015 4.2066e-011 -8.07781e-011
475
root  1.09573 37.3028 62.3219 -174.102 -23.8521 177.589
RightUpLeg  25.4106 3.70202 1.05821
RightLeg  -72.7486 -15.422 3.35041
RightFoot  18.5094 3.1934 -12.9931
RightToes  -1.27222e-014 -6.36111e-015 6.36111e-015
Spine  -21.443 -9.99242 -12.0112
Spine1  20.1323 -4.73081 31.9402
HEad  -1.93041 -38.0624 -12.1814
LeftShoulder1  6.36111e-015 -1.33558e-015 6.49777e-015
LeftArm  15.0905 9.66469 -27.0166
LeftForeArm  -98.8044 -39.974 68.8316
LeftHand  -0.302098 1.2142 -8.22228
RightShoulder  -4.77083e-015 -6.36111e-015 -3.18055e-015
RightArm  40.5212 -27.9772 -26.182
RightForeArm  -76.715 11.3523 -57.4877
RightHand  -0.369983 2.81468 -1.09568
LeftUpLeg  10.6157 5.29805 0.289164
LeftLeg  3.06599 -12.7775 -2.0334
LeftFoot  -4.65671 2.67834 -10.4803
LeftToes  9.54166e-015 4.2066e-011 -8.07781e-011
476
root  0.698039 37.8459 61.516 -174.902 -22.9214 177.009
RightUpLeg  19.2902 3.77548 0.670372
RightLeg  -62.5898 -20.1075 7.27872
RightFoot  22.9779 5.02945 -16.6135
RightToes  -1.27222e-014 -6.36111e-015 6.36111e-015
Spine  -21.4812 -13.4073 -15.2006
Spine1  18.8618 -7.17567 34.5
HEad  -0.844053 -34.1016 -13.3055
LeftShoulder1  6.36111e-015 -1.33558e-015 6.49777e-015
LeftArm  17.5877 2.29386 -28.1227
LeftForeArm  -99.3751 -39.6058 70.3282
LeftHand  -0.728631 0.0396977 -8.98886
RightShoulder  -4.77083e-015 -6.36111e-015 -3.18055e-015
RightArm  42.9737 -30.2157 -21.0984
RightForeArm  -76.3459 11.9779 -63.1719
RightHand  -0.879008 3.71757 2.48209
LeftUpLeg  14.9039 7.21356 0.157405
LeftLeg  -0.701778 -13.2519 -1.66845
LeftFoot  -4.01323 2.76678 -10.5878
LeftToes  9.54166e-015 4.2066e-011 -8.07781e-011
477
root  0.172835 38.5879 60.6053 -175.689 -20.6966 176.931
RightUpLeg  13.3651 4.401 0.878336
RightLeg  -55.7872 -23.9244 9.00548
RightFoot  21.8301 5.53448 -17.196
RightToes  -1.27222e-014 -6.36111e-015 6.36111e-015
Spine  -23.1403 -15.7992 -16.4919
Spine1  17.4206 -9.02464 35.1008
HEad  0.778009 -29.9502 -13.2706
LeftShoulder1  6.36111e-015 -1.33558e-015 6.49777e-015
LeftArm  20.978 -4.71298 -28.3024
LeftForeArm  -97.0285 -40.8562 69.9593
LeftHand  -1.18115 -1.30746 -9.62991
RightShoulder  -4.77083e-015 -6.36111e-015 -3.18055e-015
RightArm  43.5384 -31.743 -15.1518
RightForeArm  -73.517 13.1616 -63.5649
RightHand  -1.35846 4.76081 6.21905
LeftUpLeg  20.0428 10.9391 2.41089
LeftLeg  -5.88894 -14.7062 -1.12285
LeftFoot  -1.95206 3.10445 -11.0914
LeftToes  9.54166e-015 4.2066e-011 -8.07781e-011
478
root  -0.413324 39.3689 59.6255 -176.119 -18.2778 177.074
RightUpLeg  7.59737 4.16517 1.24459
RightLeg  -52.8502 -24.2211 8.15721
RightFoot  19.0475 4.679 -15.4435
RightToes  -1.27222e-014 -6.36111e-015 6.36111e-015
Spine  -25.3174 -17.7911 -16.7122
Spine1  14.9482 -10.8248 35.5003
HEad  2.37549 -25.1046 -13.1711
LeftShoulder1  6.36111e-015 -1.33558e-015 6.49777e-015
LeftArm  25.2443 -9.61712 -29.031
LeftForeArm  -92.7987 -43.0072 67.7299
LeftHand  -1.42584 -2.06477 -9.94341
RightShoulder  -4.77083e-015 -6.36111e-015 -3.18055e-015
RightArm  43.4634 -32.3404 -9.06869
RightForeArm  -68.13 15.2944 -61.8681
RightHand  -1.60247 5.46199 8.24335
LeftUpLeg  25.2833 15.188 6.61669
LeftLeg  -11.2289 -19.7014 -0.014822
LeftFoot  0.362089 4.52637 -15.0206
LeftToes  9.54166e-015 4.2066e-011 -8.07781e-011
479
root  -1.00749 39.9487 58.626 -176.711 -16.595 177.11
RightUpLeg  2.73989 2.75521 1.64152
RightLeg  -54.1424 -21.8479 6.33441
RightFoot  18.6177 3.74387 -13.8862
RightToes  -1.27222e-014 -6.36111e-015 6.36111e-015
Spine  -26.805 -19.8246 -16.8447
Spine1  12.0249 -12.7537 37.0346
HEad  2.26373 -20.8732 -12.4033
LeftShoulder1  6.36111e-015 -1.33558e-015 6.49777e-015
LeftArm  29.5483 -12.6106 -31.0636
LeftForeArm  -86.9373 -45.4853 63.6489
LeftHand  -1.49923 -2.26134 -10.2055
RightShoulder  -4.77083e-015 -6.36111e-015 -3.18055e-015
RightArm  43.8303 -31.9496 -4.2283
RightForeArm  -61.5526 17.928 -59.5447
RightHand  -1.57664 5.59511 7.73373
LeftUpLeg  30.0188 17.5703 9.94202
LeftLeg  -14.9711 -25.7341 1.70936
LeftFoot  0.913829 6.65 -21.6024
LeftToes  9.54166e-015 4.2066e-011 -8.07781e-011
